<?xml version="1.0" standalone="no"?>
<!DOCTYPE svg PUBLIC "-//W3C//DTD SVG 20010904//EN"
 "http://www.w3.org/TR/2001/REC-SVG-20010904/DTD/svg10.dtd">
<svg version="1.0" xmlns="http://www.w3.org/2000/svg"
 width="200.000000pt" height="200.000000pt" viewBox="0 0 200.000000 200.000000"
 preserveAspectRatio="xMidYMid meet">

<g transform="translate(0.000000,200.000000) scale(0.100000,-0.100000)"
fill="#333333" stroke="none">
<path d="M1183 1570 c-69 -28 -147 -112 -168 -182 -11 -37 -15 -98 -15 -219
l0 -167 -192 -4 c-189 -3 -194 -4 -240 -30 -257 -152 -179 -525 117 -555 85
-9 158 19 226 86 80 80 89 113 89 328 l0 173 169 0 c205 0 248 11 327 82 71
65 98 134 92 233 -7 108 -58 190 -149 240 -72 39 -179 45 -256 15z m173 -51
c69 -18 140 -87 160 -156 25 -87 2 -174 -63 -235 -51 -49 -89 -58 -243 -58
l-140 0 0 140 c0 154 9 192 58 243 40 43 107 74 160 76 13 1 43 -4 68 -10z"/>
</g>
</svg>
